<svg width="2000" height="2000" viewBox="0 0 2000 2000" fill="none" xmlns="http://www.w3.org/2000/svg">
<path d="M389.945 283.077C467.824 279.401 561.327 281.706 639.929 281.791L1082.54 282.295L1420.51 281.645C1480.66 281.518 1540.67 280.93 1600.7 282.865C1665.17 284.946 1732.49 338.87 1742.59 403.55C1752.9 469.607 1749.45 542.447 1749.43 609.942L1749.18 942.254L1749.18 1345.08C1748.9 1416.55 1750.02 1487.9 1747.13 1559.31C1743.51 1648.52 1691.09 1700 1605.81 1716.78C1570.25 1721.5 1473.94 1719.24 1433.41 1719.11L1114.42 1718.26L659.175 1718.6C576.707 1718.7 494.282 1719.31 412.038 1717.03C352.016 1715.36 275.641 1676.44 263.818 1612.62C246.288 1517.97 252.862 1407.2 252.819 1310.27L252.783 875.706L252.376 600.491C252.164 454.338 221.106 329.934 389.945 283.077ZM1563.21 1644.05C1637.61 1640.97 1669.68 1620.78 1672.83 1540.77C1675.26 1479.31 1674.63 1418.64 1674.53 1357.17L1674.04 1036.54L1674.1 667.979C1674.1 593.545 1675.47 519.662 1671.49 445.008C1667.81 376.197 1632.34 359.896 1569.06 356.214C1522.87 353.521 1476.13 354.91 1429.86 354.964L1191.84 355.14L446.404 354.352C378.613 356.445 332.702 369.566 331.221 446.331C329.867 516.258 329.91 585.628 329.983 655.543L330.238 1032.38L330.074 1378.52C330.056 1439.6 329.242 1501.15 331.306 1561.99C331.961 1581.39 344.787 1615.89 360.288 1626.53C376.124 1637.39 424.056 1642.87 442.21 1643.54C589.011 1648.96 736.06 1642.91 882.939 1644.73C1107.21 1643.9 1339.72 1652.67 1563.21 1644.05Z" fill="#C9A96E"/>
<path d="M546.365 466.75C737.619 517.763 727.78 527.948 865.094 664.145C963.428 761.839 1060.58 860.722 1156.53 960.769C1214.64 1020.46 1281.99 1093.28 1344.57 1147.76C1363.87 1123.16 1409.96 1080.27 1433.91 1058.5C1454.23 1076.45 1471.37 1093.97 1490.3 1113.21C1448.48 1157.25 1402.11 1199.35 1358.89 1242.66C1388.95 1280.03 1431.5 1322.66 1465.48 1356.17L1489.06 1332.46C1521.15 1363.48 1551.07 1396.87 1581.21 1429.78C1563.6 1447.64 1544.32 1465.86 1526.27 1483.45L1474.12 1533.41C1444.79 1509.53 1403.52 1463.17 1376.5 1434.16L1403.08 1411.15C1374.79 1380.55 1327.27 1325.65 1297.58 1299.92C1253.64 1343.8 1209.48 1387.46 1165.11 1430.9C1146.84 1414.29 1126.44 1392.33 1108.91 1374.42C1140.22 1344 1171.03 1313.06 1201.31 1281.63C1059.26 1131.22 911.757 981.371 766.225 834.484C623.82 690.753 574.316 675.75 546.365 466.75ZM1275.63 1224.96C1277.62 1214.34 1281.16 1207.99 1274.58 1199.91C1256.49 1177.7 1234.45 1155.65 1214.58 1135.17L1094.01 1011.45L888.456 801.677C852.05 764.144 724.017 623.258 680.085 604.634C679.187 629.191 680.631 630.416 698.78 648.791C798.601 749.852 895.666 853.314 993.394 956.359C1049.29 1015.71 1106.16 1074.15 1163.96 1131.65C1185.61 1153.18 1248.82 1221.27 1275.63 1224.96Z" fill="#C9A96E"/>
<path d="M844.615 967.691C861.737 976.991 885.986 1004.6 900.091 1019.69C871.346 1050.19 731.872 1177.78 733.541 1214.07L738.912 1218.74C761.412 1216.71 900.486 1066.36 922.118 1043.87C941.687 1060.99 960.144 1080.03 978.554 1098.45C932.673 1154.83 856.305 1228.84 804.653 1280.93C825.52 1307.76 869.646 1349.22 895.315 1374.52C877.616 1393.32 858.49 1412.41 840.397 1430.95C794.668 1394 748.454 1343.68 707.593 1300.48L672.268 1335.9C648.038 1360.87 624.123 1386.15 600.531 1411.72L622.867 1437.96C591.202 1468.56 558.935 1502.13 527.744 1533.5C492.188 1499.02 456.929 1464.24 421.962 1429.16C452.14 1396.45 483.466 1364.82 515.878 1334.33L541.655 1352.58C576.725 1316.27 611.996 1280.16 647.467 1244.24C606.127 1198.26 557.114 1158.36 514.578 1112.13C529.297 1094.59 550.256 1075.27 566.959 1059C596.725 1080.27 633.04 1119.89 663.509 1146.23C721.79 1091.35 784.398 1018.13 844.615 967.691Z" fill="#C9A96E"/>
<path d="M1441.55 468.503C1448.45 469.061 1445.82 468.564 1452.23 472.21C1457.56 487.788 1424.29 622.008 1414.33 638.151C1352.46 738.562 1243.72 833.216 1159.23 915.234C1137.22 893.917 1123.61 878.975 1103.78 855.796C1177.59 779.765 1253.64 706.495 1328.36 631.399C1325.06 620.643 1322.25 618.641 1314.37 613.479C1280.44 622.141 1112.8 802.587 1081.52 835.133L1024.8 777.727C1099.52 696.667 1216.91 570.419 1309.37 512.988C1325.29 503.1 1419.33 475.316 1441.55 468.503Z" fill="#C9A96E"/>
</svg>
